<svg width="22" height="22" viewBox="0 0 22 22" fill="none" xmlns="http://www.w3.org/2000/svg">
<circle cx="11" cy="11" r="10" stroke="#1D2EC3" stroke-width="2"/>
<path d="M9.6345 18V8.18182H12.3575V18H9.6345ZM11.0024 6.91619C10.5976 6.91619 10.2503 6.78196 9.96049 6.51349C9.67498 6.24077 9.53223 5.91477 9.53223 5.53551C9.53223 5.16051 9.67498 4.83878 9.96049 4.57031C10.2503 4.29758 10.5976 4.16122 11.0024 4.16122C11.4072 4.16122 11.7524 4.29758 12.0379 4.57031C12.3277 4.83878 12.4726 5.16051 12.4726 5.53551C12.4726 5.91477 12.3277 6.24077 12.0379 6.51349C11.7524 6.78196 11.4072 6.91619 11.0024 6.91619Z" fill="#1D2EC3"/>
</svg>
